# xmcd
#
# Track frame offsets: 
#        150
#        14302
#        27365
#        39530
#        53195
#        65209
#        79860
#        90242
#        101671
#        111463
#        121978
#        134389
#        146414
#        158467
#        169656
#        185825
#        200164
#        214766
#        226135
#        245124
#
# Disc length: 3396 seconds
#
# Revision: 4
# Processed by: cddbd v1.5.2PL0 Copyright (c) Steve Scherf et al.
# Submitted via: ExactAudioCopyFreeDBPlugin 1.0
#
DISCID=1e0d4214
DTITLE=Various Artist - Atlanta Soul:  The Peachtree Records Story
DYEAR=2003
DGENRE=Rhythm and Blues
TTITLE0=James Fountain - Seven Day Lover
TTITLE1=Mitty Collier - Lovin' on Borrowed Time
TTITLE2=Emory and The Dynamics - Let's Take a Look at Our Life
TTITLE3=Jimmy Church - Shadow of Another Man's Love
TTITLE4=Susie Rainey - You Hurt So Good
TTITLE5=Eddie Billups - A Soldier's Prayer
TTITLE6=Gorgeous George - You Can't Stop a Woman
TTITLE7=The Four Dynamics - Things That a Lady Ain't Supposed to Do
TTITLE8=Mitty Collier - Share What You Got
TTITLE9=James Fountain - Burning Up for Your Love
TTITLE10=Emory and The Dynamics - It Sure Would Be Nice
TTITLE11=Jimmy Church - Thinkin' About the Good Times
TTITLE12=Eddie Billups - Ask My Heart
TTITLE13=Gorgeous George - It's Not a Hurting Thing
TTITLE14=Mitty Collier - Your Sign is a Good Sign
TTITLE15=The Four Dynamics - That's What Girls Are Made For
TTITLE16=Johnny Jones and The King Casuals - Purple Haze
TTITLE17=James Fountain - Malnutrition
TTITLE18=Mitty Collier - What Do You Want
TTITLE19=Peg Leg Moffett - The Shocker
EXTD=
EXTT0=
EXTT1=
EXTT2=
EXTT3=
EXTT4=
EXTT5=
EXTT6=
EXTT7=
EXTT8=
EXTT9=
EXTT10=
EXTT11=
EXTT12=
EXTT13=
EXTT14=
EXTT15=
EXTT16=
EXTT17=
EXTT18=
EXTT19=
PLAYORDER=
